<svg xmlns="http://www.w3.org/2000/svg" xmlns:xlink="http://www.w3.org/1999/xlink" version="1.1" width="256" height="256" viewBox="0 0 256 256" xml:space="preserve">

<defs>
</defs>
<g style="stroke: none; stroke-width: 0; stroke-dasharray: none; stroke-linecap: butt; stroke-linejoin: miter; stroke-miterlimit: 10; fill: none; fill-rule: nonzero; opacity: 1;" transform="translate(1.4065934065934016 1.4065934065934016) scale(2.81 2.81)" >
	<path d="M 45 66.369 c -14.692 0 -29.384 -6.37 -43.973 -19.109 C 0.375 46.69 0 45.866 0 45 s 0.375 -1.69 1.027 -2.26 c 29.18 -25.479 58.768 -25.479 87.947 0 C 89.626 43.31 90 44.134 90 45 s -0.374 1.69 -1.026 2.26 C 74.384 59.999 59.692 66.369 45 66.369 z M 7.647 45 c 25.104 20.505 49.602 20.505 74.705 0 C 57.249 24.495 32.751 24.496 7.647 45 z" style="stroke: none; stroke-width: 1; stroke-dasharray: none; stroke-linecap: butt; stroke-linejoin: miter; stroke-miterlimit: 10; fill: rgb(0,0,0); fill-rule: nonzero; opacity: 1;" transform=" matrix(1 0 0 1 0 0) " stroke-linecap="round" />
	<circle cx="44.998999999999995" cy="44.998999999999995" r="11.029" style="stroke: none; stroke-width: 1; stroke-dasharray: none; stroke-linecap: butt; stroke-linejoin: miter; stroke-miterlimit: 10; fill: rgb(0,0,0); fill-rule: nonzero; opacity: 1;" transform="  matrix(1 0 0 1 0 0) "/>
</g>
</svg>